<?xml version="1.0" standalone="no"?>
<!DOCTYPE svg PUBLIC "-//W3C//DTD SVG 20010904//EN"
 "http://www.w3.org/TR/2001/REC-SVG-20010904/DTD/svg10.dtd">
<svg version="1.0" xmlns="http://www.w3.org/2000/svg"
 width="512.000000pt" height="512.000000pt" viewBox="0 0 512.000000 512.000000"
 preserveAspectRatio="xMidYMid meet">
<metadata>
Created by potrace 1.11, written by Peter Selinger 2001-2013
</metadata>
<g transform="translate(0.000000,512.000000) scale(0.100000,-0.100000)"
fill="#000000" stroke="none">
<path d="M1775 4859 c-160 -38 -334 -146 -422 -262 -21 -27 -22 -27 -40 -9
-75 76 -189 140 -307 172 -79 22 -209 31 -266 19 -19 -4 -48 -10 -65 -13 -84
-15 -232 -97 -308 -171 -141 -137 -210 -312 -203 -515 4 -108 7 -126 25 -172
6 -16 8 -28 6 -28 -8 0 55 -121 85 -165 116 -166 307 -275 508 -289 23 -2 46
-6 49 -10 4 -3 19 -42 34 -85 l27 -79 -49 -32 c-69 -44 -175 -153 -237 -244
-82 -117 -181 -345 -206 -471 -3 -11 -11 -49 -20 -85 -8 -36 -18 -92 -22 -125
-3 -33 -8 -62 -9 -65 -5 -8 -18 -228 -18 -295 1 -70 12 -274 17 -301 2 -11 7
-46 11 -79 9 -79 40 -228 70 -340 108 -397 345 -773 550 -870 69 -33 199 -67
305 -80 30 -4 62 -9 70 -10 104 -19 817 -27 1090 -12 74 5 164 10 200 12 212
11 413 25 590 40 25 2 83 7 130 10 47 3 101 8 120 10 19 2 69 7 110 10 184 15
282 24 335 30 22 2 67 7 100 10 33 3 80 8 105 10 25 3 70 7 100 10 186 18 224
28 251 66 26 37 24 65 -10 125 -58 100 -205 200 -390 263 -61 21 -113 36 -116
33 -3 -3 -5 -1 -5 4 0 5 38 26 83 48 309 145 547 417 640 732 14 49 41 107 71
152 81 124 137 267 172 437 23 109 26 419 6 500 -7 28 -14 59 -16 70 -25 128
-134 325 -251 453 -91 99 -269 212 -390 248 -75 22 -78 25 -128 98 -50 73
-210 237 -292 298 -117 87 -365 218 -413 218 -10 0 -22 4 -27 9 -11 9 -140 44
-225 60 -102 19 -164 24 -314 25 l-149 1 -19 75 c-22 83 -73 192 -124 261 -84
115 -236 228 -371 274 -97 34 -114 37 -248 40 -92 2 -139 -2 -200 -16z m-300
-1364 c28 -21 54 -42 58 -46 7 -5 -37 -119 -45 -119 -2 0 -25 7 -52 15 -50 15
-236 15 -302 0 -30 -7 -31 -6 -50 52 l-20 58 76 38 c42 20 103 60 135 87 l60
50 45 -47 c25 -27 68 -66 95 -88z"/>
</g>
</svg>
